<svg id="svg" version="1.1" width="400" height="400" xmlns="http://www.w3.org/2000/svg" xmlns:xlink="http://www.w3.org/1999/xlink" style="display: block;"><g id="svgg"><path id="path0" d="M147.342 44.651 C 147.091 44.754,146.977 45.190,147.089 45.619 C 147.255 46.252,147.087 46.400,146.204 46.400 C 145.374 46.400,145.172 46.249,145.357 45.767 C 145.511 45.365,145.418 45.194,145.102 45.299 C 144.828 45.391,144.603 45.795,144.602 46.198 C 144.601 46.601,144.375 47.007,144.100 47.099 C 143.825 47.191,143.600 46.971,143.600 46.610 C 143.600 46.248,143.428 46.059,143.217 46.189 C 143.007 46.319,142.923 46.656,143.032 46.938 C 143.140 47.220,142.191 48.487,140.924 49.754 C 138.953 51.725,137.587 52.277,138.662 50.668 C 138.848 50.390,138.596 50.621,138.102 51.181 C 137.608 51.741,137.206 52.380,137.208 52.600 C 137.210 52.820,137.380 52.735,137.584 52.412 C 138.189 51.456,138.582 52.313,138.020 53.362 C 137.737 53.891,137.628 54.522,137.778 54.765 C 137.928 55.007,137.767 55.315,137.419 55.448 C 136.854 55.665,136.790 58.110,136.806 78.863 C 136.817 91.608,136.747 102.163,136.651 102.318 C 136.555 102.473,127.901 102.552,117.419 102.492 C 104.046 102.417,98.441 102.257,98.626 101.958 C 98.809 101.662,98.169 101.619,96.545 101.816 C 93.870 102.140,93.257 102.400,95.167 102.400 C 96.033 102.400,96.408 102.567,96.291 102.900 C 96.093 103.465,93.876 103.357,93.667 102.772 C 93.437 102.131,92.935 102.367,92.968 103.100 C 93.003 103.866,92.800 104.000,91.600 104.000 C 90.615 104.000,90.542 103.326,91.500 103.076 C 92.131 102.911,92.133 102.888,91.524 102.846 C 91.152 102.821,90.736 102.980,90.600 103.200 C 90.464 103.420,89.924 103.600,89.400 103.600 C 88.876 103.600,88.352 103.754,88.236 103.942 C 88.119 104.130,88.469 104.199,89.012 104.096 C 90.327 103.844,90.267 104.473,88.917 105.100 C 87.656 105.686,86.400 105.754,86.400 105.237 C 86.400 105.038,86.037 104.970,85.594 105.086 C 84.410 105.395,84.255 105.917,85.412 105.696 C 86.825 105.425,86.631 105.853,84.986 106.634 C 83.554 107.313,82.529 107.100,83.612 106.348 C 84.126 105.991,84.124 105.960,83.600 106.104 C 83.270 106.195,82.983 106.523,82.961 106.834 C 82.886 107.934,82.306 108.800,81.646 108.800 C 81.278 108.800,80.717 109.160,80.400 109.600 C 80.083 110.040,79.572 110.400,79.265 110.400 C 78.959 110.400,67.803 121.296,54.474 134.612 C 40.689 148.385,30.022 158.740,29.733 158.630 C 29.454 158.523,29.102 158.635,28.951 158.879 C 28.784 159.149,28.859 159.211,29.141 159.036 C 30.024 158.490,30.118 160.004,29.247 160.759 C 28.781 161.163,28.400 161.768,28.400 162.104 C 28.400 162.664,27.361 163.397,26.738 163.276 C 26.594 163.248,26.254 163.494,25.982 163.822 C 25.568 164.320,25.604 164.373,26.198 164.145 C 26.704 163.951,26.855 164.035,26.722 164.435 C 26.619 164.744,26.205 164.997,25.802 164.998 C 25.399 164.999,24.995 165.270,24.904 165.600 C 24.771 166.085,24.812 166.096,25.120 165.657 C 25.385 165.278,25.582 165.248,25.774 165.557 C 26.103 166.091,25.678 166.896,25.218 166.611 C 25.038 166.500,24.665 166.681,24.389 167.014 C 23.971 167.517,23.996 167.576,24.543 167.366 C 25.282 167.083,25.513 168.559,24.800 169.000 C 24.580 169.136,24.400 169.674,24.400 170.196 C 24.400 170.875,24.144 171.181,23.500 171.272 C 22.890 171.359,22.583 171.692,22.547 172.306 C 22.503 173.060,22.524 173.077,22.675 172.406 C 23.009 170.919,23.600 171.581,23.600 173.443 C 23.600 174.888,23.475 175.238,23.020 175.063 C 22.659 174.925,22.338 175.166,22.167 175.703 C 22.004 176.217,22.076 176.625,22.347 176.716 C 22.897 176.899,22.981 183.200,22.433 183.200 C 22.232 183.200,21.980 182.975,21.874 182.700 C 21.571 181.914,21.574 181.446,21.631 228.500 C 21.681 269.312,21.630 273.200,21.043 273.200 C 20.689 273.200,20.400 273.470,20.400 273.800 C 20.400 274.197,20.003 274.400,19.224 274.400 C 17.927 274.400,17.235 273.770,18.203 273.471 C 18.633 273.338,18.604 273.303,18.108 273.355 C 17.666 273.401,17.447 273.698,17.525 274.146 C 17.603 274.596,17.343 274.942,16.825 275.078 C 16.371 275.196,16.000 275.452,16.000 275.647 C 16.000 275.841,15.703 276.000,15.340 276.000 C 14.531 276.000,10.400 280.189,10.400 281.009 C 10.400 281.334,10.220 281.600,10.000 281.600 C 9.780 281.600,9.600 281.960,9.600 282.400 C 9.600 282.840,9.432 283.200,9.227 283.200 C 9.021 283.200,8.796 283.695,8.727 284.300 C 8.653 284.942,8.356 285.400,8.014 285.400 C 7.024 285.400,7.051 290.036,8.042 290.295 C 8.598 290.440,8.800 290.855,8.800 291.847 C 8.800 293.142,8.292 293.654,7.863 292.790 C 7.752 292.565,7.706 292.610,7.761 292.890 C 7.817 293.171,8.254 293.458,8.731 293.528 C 9.209 293.598,9.600 293.927,9.600 294.259 C 9.600 294.591,10.365 295.598,11.300 296.497 C 12.338 297.496,12.804 298.197,12.498 298.300 C 12.221 298.393,12.103 298.644,12.236 298.858 C 12.371 299.077,12.722 298.931,13.037 298.524 C 13.571 297.835,13.642 297.849,14.499 298.800 C 14.995 299.350,15.655 299.800,15.967 299.800 C 16.819 299.800,16.980 300.796,16.133 300.828 C 15.471 300.854,15.478 300.887,16.200 301.175 C 16.734 301.388,17.106 301.312,17.320 300.947 C 17.758 300.197,20.400 300.218,20.400 300.971 C 20.400 301.285,20.085 301.622,19.700 301.720 C 19.315 301.818,19.540 301.910,20.200 301.925 C 20.860 301.939,22.030 302.053,22.800 302.179 C 23.761 302.335,23.951 302.299,23.407 302.065 C 22.722 301.771,22.804 301.688,24.010 301.462 C 26.169 301.057,51.007 301.567,50.960 302.016 C 50.938 302.227,50.890 303.255,50.854 304.300 C 50.804 305.729,50.687 306.051,50.380 305.600 C 50.097 305.183,50.054 305.913,50.239 308.000 C 50.530 311.296,50.800 312.176,50.800 309.833 C 50.800 308.807,50.958 308.388,51.300 308.507 C 51.908 308.719,51.914 311.957,51.308 312.338 C 51.043 312.504,51.003 313.188,51.199 314.200 C 51.378 315.129,51.527 315.409,51.554 314.867 C 51.579 314.353,51.794 313.998,52.030 314.077 C 52.267 314.156,52.446 314.351,52.430 314.510 C 52.413 314.670,52.400 315.171,52.400 315.624 C 52.400 316.077,52.223 316.338,52.006 316.204 C 51.760 316.052,51.706 316.455,51.863 317.280 C 52.188 318.981,52.400 319.214,52.400 317.867 C 52.400 317.280,52.580 316.800,52.800 316.800 C 53.216 316.800,53.342 317.308,53.221 318.500 C 53.182 318.885,53.341 319.200,53.575 319.200 C 53.809 319.200,54.000 319.740,54.000 320.400 C 54.000 321.060,54.180 321.600,54.400 321.600 C 54.892 321.600,54.936 323.482,54.449 323.667 C 53.775 323.922,54.763 325.600,55.587 325.600 C 56.133 325.600,56.400 325.862,56.400 326.400 C 56.400 326.840,56.580 327.200,56.800 327.200 C 57.020 327.200,57.200 327.489,57.200 327.843 C 57.200 328.290,56.987 328.404,56.500 328.219 C 56.046 328.046,55.941 328.088,56.200 328.337 C 56.420 328.549,56.945 328.785,57.368 328.861 C 57.790 328.938,58.452 329.540,58.838 330.200 C 59.736 331.731,59.792 332.559,58.979 332.247 C 58.601 332.102,58.461 332.175,58.620 332.432 C 58.763 332.664,59.116 332.764,59.403 332.654 C 59.989 332.429,61.200 333.589,61.200 334.374 C 61.200 334.672,60.941 334.786,60.579 334.647 C 60.214 334.507,60.062 334.577,60.209 334.815 C 60.347 335.039,60.686 335.171,60.961 335.111 C 61.794 334.927,64.504 337.552,64.227 338.273 C 64.011 338.838,63.883 338.824,63.092 338.154 L 62.200 337.400 62.938 338.273 C 63.343 338.753,63.886 339.065,64.143 338.967 C 64.719 338.746,69.867 343.866,69.469 344.264 C 69.312 344.421,68.332 343.751,67.292 342.775 L 65.400 341.000 67.184 342.900 C 68.516 344.320,69.164 344.738,69.744 344.554 C 70.326 344.370,70.463 344.459,70.289 344.911 C 70.151 345.272,70.488 345.895,71.126 346.457 C 71.956 347.190,72.039 347.215,71.497 346.569 C 69.878 344.637,71.410 344.693,73.173 346.630 C 74.447 348.030,74.615 349.008,73.410 348.008 C 73.074 347.730,72.800 347.602,72.800 347.724 C 72.800 347.846,73.339 348.329,73.997 348.798 C 74.815 349.380,75.123 349.465,74.970 349.066 C 74.603 348.109,75.436 347.956,76.231 348.834 C 76.760 349.419,76.836 349.731,76.500 349.938 C 76.181 350.135,76.314 350.403,76.916 350.778 C 77.708 351.271,77.746 351.263,77.281 350.700 C 76.909 350.250,76.888 349.993,77.206 349.796 C 77.789 349.436,79.285 350.801,79.032 351.462 C 78.923 351.744,79.007 352.081,79.217 352.211 C 79.428 352.341,79.600 352.167,79.600 351.824 C 79.600 351.087,80.228 350.998,80.647 351.676 C 80.809 351.938,80.729 352.224,80.468 352.311 C 79.932 352.489,80.235 353.200,80.847 353.200 C 81.067 353.200,81.144 353.032,81.017 352.828 C 80.575 352.113,81.513 352.018,82.778 352.649 C 83.555 353.036,83.971 353.498,83.844 353.830 C 83.729 354.129,83.835 354.498,84.079 354.649 C 84.349 354.816,84.411 354.741,84.236 354.459 C 83.776 353.714,85.068 353.474,86.389 354.059 C 87.055 354.354,87.600 354.731,87.600 354.898 C 87.600 355.064,88.140 355.200,88.800 355.200 C 89.460 355.200,90.000 355.380,90.000 355.600 C 90.000 355.820,90.527 356.000,91.172 356.000 C 92.081 356.000,92.373 356.201,92.472 356.896 C 92.545 357.406,92.905 357.819,93.308 357.855 C 93.814 357.900,93.841 357.864,93.403 357.729 C 92.420 357.425,93.136 356.800,94.466 356.800 C 95.380 356.800,95.629 356.949,95.458 357.394 C 95.203 358.057,96.333 358.823,97.474 358.760 C 97.984 358.732,97.902 358.629,97.200 358.415 C 96.376 358.164,96.316 358.060,96.862 357.827 C 97.858 357.401,100.214 357.726,100.108 358.276 C 99.972 358.981,101.342 359.278,102.573 358.810 C 103.990 358.272,111.430 358.281,112.441 358.822 C 113.366 359.317,114.825 358.963,114.692 358.276 C 114.586 357.729,117.325 357.393,118.342 357.828 C 118.883 358.060,118.823 358.168,118.000 358.436 L 117.000 358.761 118.000 358.681 C 118.701 358.624,119.038 358.331,119.128 357.700 C 119.261 356.764,122.000 356.287,122.000 357.200 C 122.000 357.420,121.790 357.600,121.533 357.600 C 121.277 357.600,121.161 357.694,121.276 357.809 C 121.762 358.295,122.701 357.507,122.509 356.774 C 122.340 356.127,122.518 356.000,123.596 356.000 C 124.578 356.000,124.831 356.143,124.655 356.600 C 124.529 356.930,124.596 357.200,124.805 357.200 C 125.014 357.200,125.298 356.750,125.436 356.200 C 125.593 355.574,125.970 355.200,126.443 355.200 C 126.860 355.200,127.200 355.007,127.200 354.772 C 127.200 354.537,127.605 354.406,128.100 354.482 C 128.595 354.557,128.951 354.853,128.890 355.139 C 128.830 355.425,128.965 355.545,129.190 355.406 C 129.416 355.267,129.602 354.848,129.604 354.476 C 129.607 354.043,130.504 353.371,132.104 352.606 C 134.850 351.293,135.447 351.158,135.305 351.886 C 135.248 352.176,135.462 352.274,135.838 352.130 C 136.331 351.941,136.355 351.819,135.949 351.569 C 135.343 351.194,136.641 349.480,137.353 349.718 C 137.579 349.793,138.177 349.392,138.683 348.827 C 139.556 347.851,139.630 347.836,140.163 348.524 C 140.478 348.931,140.829 349.077,140.964 348.858 C 141.097 348.644,140.979 348.383,140.702 348.280 C 140.370 348.155,140.618 347.660,141.440 346.814 C 142.547 345.672,142.744 345.601,143.286 346.143 C 143.828 346.685,144.036 346.593,145.246 345.276 L 146.600 343.802 145.304 344.972 C 142.406 347.588,143.757 345.383,147.253 341.789 C 149.314 339.672,151.115 337.637,151.256 337.269 C 151.397 336.901,151.982 336.164,152.556 335.630 C 153.130 335.097,153.600 334.450,153.600 334.192 C 153.600 333.935,153.960 333.398,154.400 333.000 C 154.840 332.602,155.200 332.062,155.200 331.800 C 155.200 331.538,155.560 330.998,156.000 330.600 C 156.440 330.202,156.800 329.634,156.800 329.338 C 156.800 329.042,156.980 328.800,157.200 328.800 C 157.420 328.800,157.600 328.440,157.600 328.000 C 157.600 327.560,157.780 327.200,158.000 327.200 C 158.220 327.200,158.400 326.840,158.400 326.400 C 158.400 325.960,158.580 325.600,158.800 325.600 C 159.020 325.600,159.200 325.240,159.200 324.800 C 159.200 324.360,159.380 324.000,159.600 324.000 C 159.820 324.000,160.000 323.640,160.000 323.200 C 160.000 322.760,160.201 322.400,160.447 322.400 C 160.706 322.400,160.814 322.814,160.704 323.388 C 160.601 323.931,160.648 324.294,160.810 324.194 C 161.250 323.922,161.543 322.000,161.145 322.000 C 160.955 322.000,160.800 321.531,160.800 320.957 C 160.800 320.205,160.963 319.977,161.387 320.140 C 161.710 320.264,162.081 320.193,162.211 319.983 C 162.341 319.772,162.257 319.600,162.024 319.600 C 161.791 319.600,161.600 319.150,161.600 318.600 C 161.600 317.357,162.382 317.264,162.447 318.500 C 162.484 319.205,162.553 319.141,162.764 318.200 C 162.912 317.540,162.909 316.910,162.758 316.800 C 161.807 316.111,162.396 313.470,163.413 313.860 C 163.736 313.984,164.000 313.876,164.000 313.619 C 164.000 313.363,163.820 313.264,163.600 313.400 C 163.370 313.542,163.174 313.126,163.140 312.424 C 163.107 311.751,163.062 310.990,163.040 310.733 C 163.018 310.477,163.225 310.192,163.500 310.100 C 163.841 309.986,164.000 310.411,164.000 311.433 C 164.000 313.610,164.250 312.984,164.540 310.079 C 164.688 308.596,164.642 307.650,164.428 307.783 C 164.110 307.979,163.632 302.469,163.900 301.691 C 164.063 301.218,251.007 301.519,250.960 301.993 C 250.938 302.217,250.890 303.255,250.854 304.300 C 250.804 305.729,250.687 306.051,250.380 305.600 C 250.097 305.183,250.054 305.913,250.239 308.000 C 250.530 311.296,250.800 312.176,250.800 309.833 C 250.800 308.807,250.958 308.388,251.300 308.507 C 251.908 308.719,251.914 311.957,251.308 312.338 C 251.043 312.504,251.003 313.188,251.199 314.200 C 251.378 315.129,251.527 315.409,251.554 314.867 C 251.579 314.353,251.793 313.998,252.030 314.077 C 252.267 314.156,252.447 314.351,252.430 314.510 C 252.414 314.670,252.400 315.171,252.400 315.624 C 252.400 316.077,252.223 316.338,252.006 316.204 C 251.760 316.052,251.706 316.455,251.863 317.280 C 252.188 318.981,252.400 319.214,252.400 317.867 C 252.400 317.280,252.580 316.800,252.800 316.800 C 253.216 316.800,253.342 317.308,253.221 318.500 C 253.182 318.885,253.341 319.200,253.575 319.200 C 253.809 319.200,254.000 319.740,254.000 320.400 C 254.000 321.060,254.180 321.600,254.400 321.600 C 254.892 321.600,254.936 323.482,254.449 323.667 C 253.775 323.922,254.763 325.600,255.587 325.600 C 256.133 325.600,256.400 325.862,256.400 326.400 C 256.400 326.840,256.580 327.200,256.800 327.200 C 257.020 327.200,257.200 327.489,257.200 327.843 C 257.200 328.290,256.987 328.404,256.500 328.219 C 256.046 328.046,255.941 328.088,256.200 328.337 C 256.420 328.549,256.945 328.785,257.368 328.861 C 257.790 328.938,258.452 329.540,258.838 330.200 C 259.736 331.731,259.792 332.559,258.979 332.247 C 258.601 332.102,258.461 332.175,258.620 332.432 C 258.763 332.664,259.116 332.764,259.403 332.654 C 259.989 332.429,261.200 333.589,261.200 334.374 C 261.200 334.672,260.941 334.786,260.579 334.647 C 260.214 334.507,260.062 334.577,260.209 334.815 C 260.347 335.039,260.686 335.171,260.961 335.111 C 261.794 334.927,264.504 337.552,264.227 338.273 C 264.011 338.838,263.883 338.824,263.092 338.154 L 262.200 337.400 262.938 338.273 C 263.343 338.753,263.886 339.065,264.143 338.967 C 264.719 338.746,269.867 343.866,269.469 344.264 C 269.312 344.421,268.332 343.751,267.292 342.775 L 265.400 341.000 267.184 342.900 C 268.516 344.320,269.164 344.738,269.744 344.554 C 270.326 344.370,270.463 344.459,270.289 344.911 C 270.151 345.272,270.488 345.895,271.126 346.457 C 271.956 347.190,272.039 347.215,271.497 346.569 C 269.878 344.637,271.410 344.693,273.173 346.630 C 274.447 348.030,274.615 349.008,273.410 348.008 C 273.074 347.730,272.800 347.602,272.800 347.724 C 272.800 347.846,273.339 348.329,273.997 348.798 C 274.815 349.380,275.123 349.465,274.970 349.066 C 274.603 348.109,275.436 347.956,276.231 348.834 C 276.760 349.419,276.836 349.731,276.500 349.938 C 276.181 350.135,276.314 350.403,276.916 350.778 C 277.708 351.271,277.746 351.263,277.281 350.700 C 276.909 350.250,276.888 349.993,277.206 349.796 C 277.789 349.436,279.285 350.801,279.032 351.462 C 278.923 351.744,279.007 352.081,279.217 352.211 C 279.428 352.341,279.600 352.167,279.600 351.824 C 279.600 351.087,280.228 350.998,280.647 351.676 C 280.809 351.938,280.729 352.224,280.468 352.311 C 279.932 352.489,280.235 353.200,280.847 353.200 C 281.067 353.200,281.144 353.032,281.017 352.828 C 280.575 352.113,281.513 352.018,282.778 352.649 C 283.555 353.036,283.971 353.498,283.844 353.830 C 283.729 354.129,283.835 354.498,284.079 354.649 C 284.349 354.816,284.411 354.741,284.236 354.459 C 283.776 353.714,285.068 353.474,286.389 354.059 C 287.055 354.354,287.600 354.731,287.600 354.898 C 287.600 355.064,288.140 355.200,288.800 355.200 C 289.460 355.200,290.000 355.380,290.000 355.600 C 290.000 355.820,290.527 356.000,291.172 356.000 C 292.081 356.000,292.373 356.201,292.472 356.896 C 292.551 357.446,292.909 357.823,293.400 357.873 C 294.032 357.937,294.052 357.911,293.495 357.747 C 292.431 357.434,293.081 356.800,294.466 356.800 C 295.380 356.800,295.629 356.949,295.458 357.394 C 295.203 358.057,296.333 358.823,297.474 358.760 C 297.984 358.732,297.902 358.629,297.200 358.415 C 296.376 358.164,296.316 358.060,296.862 357.827 C 297.858 357.401,300.214 357.726,300.108 358.276 C 299.972 358.981,301.342 359.278,302.573 358.810 C 303.990 358.272,311.430 358.281,312.441 358.822 C 313.366 359.317,314.825 358.963,314.692 358.276 C 314.586 357.729,317.325 357.393,318.342 357.828 C 318.883 358.060,318.823 358.168,318.000 358.436 L 317.000 358.761 318.000 358.681 C 318.701 358.624,319.038 358.331,319.128 357.700 C 319.261 356.764,322.000 356.287,322.000 357.200 C 322.000 357.420,321.790 357.600,321.533 357.600 C 321.277 357.600,321.161 357.694,321.276 357.809 C 321.762 358.295,322.701 357.507,322.509 356.774 C 322.340 356.127,322.518 356.000,323.596 356.000 C 324.578 356.000,324.831 356.143,324.655 356.600 C 324.529 356.930,324.596 357.200,324.805 357.200 C 325.014 357.200,325.298 356.750,325.436 356.200 C 325.593 355.574,325.970 355.200,326.443 355.200 C 326.860 355.200,327.200 355.007,327.200 354.772 C 327.200 354.537,327.605 354.406,328.100 354.482 C 328.595 354.557,328.951 354.853,328.890 355.139 C 328.830 355.425,328.965 355.545,329.190 355.406 C 329.416 355.267,329.602 354.848,329.604 354.476 C 329.607 354.043,330.504 353.371,332.104 352.606 C 334.850 351.293,335.447 351.158,335.305 351.886 C 335.248 352.176,335.462 352.274,335.838 352.130 C 336.331 351.941,336.355 351.819,335.949 351.569 C 335.343 351.194,336.641 349.480,337.353 349.718 C 337.579 349.793,338.177 349.392,338.683 348.827 C 339.556 347.851,339.630 347.836,340.163 348.524 C 340.478 348.931,340.829 349.077,340.964 348.858 C 341.097 348.644,340.979 348.383,340.702 348.280 C 340.370 348.155,340.618 347.660,341.440 346.814 C 342.547 345.672,342.744 345.601,343.286 346.143 C 343.828 346.685,344.036 346.593,345.246 345.276 L 346.600 343.802 345.304 344.972 C 342.406 347.588,343.757 345.383,347.253 341.789 C 349.314 339.672,351.115 337.637,351.256 337.269 C 351.397 336.901,351.982 336.164,352.556 335.630 C 353.130 335.097,353.600 334.450,353.600 334.192 C 353.600 333.935,353.960 333.398,354.400 333.000 C 354.840 332.602,355.200 332.062,355.200 331.800 C 355.200 331.538,355.560 330.998,356.000 330.600 C 356.440 330.202,356.800 329.634,356.800 329.338 C 356.800 329.042,356.980 328.800,357.200 328.800 C 357.420 328.800,357.600 328.440,357.600 328.000 C 357.600 327.560,357.780 327.200,358.000 327.200 C 358.220 327.200,358.400 326.840,358.400 326.400 C 358.400 325.960,358.580 325.600,358.800 325.600 C 359.020 325.600,359.200 325.240,359.200 324.800 C 359.200 324.360,359.380 324.000,359.600 324.000 C 359.820 324.000,360.000 323.640,360.000 323.200 C 360.000 322.760,360.201 322.400,360.447 322.400 C 360.706 322.400,360.814 322.814,360.704 323.388 C 360.601 323.931,360.648 324.294,360.810 324.194 C 361.250 323.922,361.543 322.000,361.145 322.000 C 360.955 322.000,360.800 321.531,360.800 320.957 C 360.800 320.205,360.963 319.977,361.387 320.140 C 361.710 320.264,362.081 320.193,362.211 319.983 C 362.341 319.772,362.257 319.600,362.024 319.600 C 361.791 319.600,361.600 319.150,361.600 318.600 C 361.600 317.357,362.382 317.264,362.447 318.500 C 362.484 319.205,362.553 319.141,362.764 318.200 C 362.912 317.540,362.909 316.910,362.758 316.800 C 361.807 316.111,362.396 313.470,363.413 313.860 C 363.736 313.984,364.000 313.876,364.000 313.619 C 364.000 313.363,363.820 313.264,363.600 313.400 C 363.370 313.542,363.174 313.126,363.140 312.424 C 363.107 311.751,363.062 310.990,363.040 310.733 C 363.018 310.477,363.225 310.192,363.500 310.100 C 363.841 309.986,364.000 310.411,364.000 311.433 C 364.000 313.610,364.250 312.984,364.540 310.079 C 364.688 308.596,364.642 307.650,364.428 307.783 C 364.086 307.994,363.642 302.444,363.933 301.591 C 364.084 301.149,374.729 301.046,376.831 301.466 C 377.986 301.697,378.059 301.778,377.381 302.074 C 376.874 302.296,377.091 302.323,378.000 302.151 C 378.770 302.005,379.940 301.898,380.600 301.913 C 381.765 301.940,381.772 301.929,380.832 301.558 C 379.493 301.029,380.304 300.304,382.049 300.471 C 382.940 300.556,383.360 300.787,383.284 301.149 C 383.207 301.509,383.391 301.612,383.816 301.449 C 384.173 301.312,384.586 301.197,384.733 301.194 C 384.880 301.191,384.732 301.018,384.403 300.811 C 383.912 300.500,383.899 300.342,384.330 299.917 C 384.759 299.494,384.951 299.532,385.389 300.124 C 385.688 300.530,386.029 300.676,386.164 300.458 C 386.297 300.244,386.179 299.984,385.902 299.881 C 385.548 299.749,385.654 299.429,386.260 298.798 C 387.242 297.775,388.385 298.051,387.519 299.102 C 387.234 299.449,387.662 299.300,388.471 298.771 C 389.281 298.242,389.870 297.737,389.781 297.648 C 389.692 297.559,389.341 297.717,389.000 298.000 C 388.659 298.283,388.277 298.410,388.150 298.284 C 387.876 298.009,390.608 295.200,391.149 295.200 C 391.356 295.200,391.435 294.855,391.324 294.433 C 391.175 293.860,391.360 293.632,392.058 293.533 C 392.644 293.449,393.022 293.102,393.073 292.600 C 393.137 291.968,393.111 291.948,392.947 292.505 C 392.634 293.569,392.000 292.919,392.000 291.534 C 392.000 290.652,392.155 290.374,392.561 290.530 C 393.580 290.921,393.589 289.855,393.595 173.100 C 393.600 57.465,393.598 57.200,392.800 57.200 C 392.181 57.200,392.000 56.933,392.000 56.024 C 392.000 54.727,392.630 54.035,392.929 55.003 C 393.064 55.441,393.100 55.414,393.055 54.908 C 393.019 54.505,392.606 54.145,392.096 54.072 C 391.603 54.002,391.200 53.715,391.200 53.434 C 391.200 53.154,390.840 52.598,390.400 52.200 C 389.960 51.802,389.600 51.265,389.600 51.008 C 389.600 50.436,387.912 48.800,387.323 48.800 C 387.089 48.800,386.666 48.521,386.384 48.180 C 386.101 47.839,385.082 47.202,384.121 46.764 C 383.159 46.326,382.474 45.804,382.598 45.604 C 382.881 45.145,381.319 44.282,380.678 44.542 C 380.415 44.649,380.560 44.754,381.000 44.775 C 381.666 44.806,381.699 44.877,381.200 45.200 C 380.515 45.643,149.313 45.772,148.162 45.330 C 147.509 45.080,147.514 45.038,148.229 44.758 C 148.717 44.567,148.779 44.458,148.400 44.460 C 148.070 44.462,147.594 44.548,147.342 44.651 M135.787 78.800 C 135.787 91.230,135.838 96.315,135.900 90.100 C 135.962 83.885,135.962 73.715,135.900 67.500 C 135.838 61.285,135.787 66.370,135.787 78.800 M68.595 118.900 L 62.200 125.400 68.700 119.005 C 74.739 113.063,75.381 112.400,75.095 112.400 C 75.038 112.400,72.113 115.325,68.595 118.900 M51.796 135.700 L 45.000 142.600 51.900 135.804 C 58.310 129.491,58.981 128.800,58.696 128.800 C 58.638 128.800,55.533 131.905,51.796 135.700 M99.200 130.814 C 99.200 131.100,99.440 131.100,99.974 130.814 C 100.473 130.547,106.926 130.400,118.174 130.400 L 135.600 130.400 135.600 158.798 L 135.600 187.196 93.500 187.301 L 51.400 187.405 93.600 187.403 L 135.800 187.400 135.903 158.900 C 135.969 140.620,136.146 130.400,136.397 130.400 C 136.749 130.400,137.221 187.263,136.876 188.100 C 136.808 188.265,117.188 188.400,93.276 188.399 L 49.800 188.399 49.800 183.199 C 49.800 180.340,49.935 178.000,50.100 178.000 C 50.265 178.000,50.400 177.743,50.400 177.429 C 50.400 176.608,96.484 130.724,96.896 131.136 C 97.085 131.325,96.109 132.620,94.705 134.039 C 92.664 136.103,92.602 136.197,94.386 134.522 C 95.604 133.379,97.140 132.165,97.800 131.824 C 98.577 131.423,98.754 131.204,98.300 131.202 C 97.915 131.201,97.600 131.020,97.600 130.800 C 97.600 130.580,97.960 130.400,98.400 130.400 C 98.840 130.400,99.200 130.586,99.200 130.814 M80.995 147.700 L 75.400 153.400 81.100 147.805 C 84.235 144.728,86.800 142.163,86.800 142.105 C 86.800 141.819,86.192 142.405,80.995 147.700 M36.200 151.200 C 32.906 154.500,30.300 157.200,30.410 157.200 C 30.520 157.200,33.306 154.500,36.600 151.200 C 39.894 147.900,42.500 145.200,42.390 145.200 C 42.280 145.200,39.494 147.900,36.200 151.200 M64.200 164.400 C 60.906 167.700,58.300 170.400,58.410 170.400 C 58.520 170.400,61.306 167.700,64.600 164.400 C 67.894 161.100,70.500 158.400,70.390 158.400 C 70.280 158.400,67.494 161.100,64.200 164.400 M51.285 177.613 C 51.018 178.040,50.801 178.617,50.802 178.895 C 50.804 179.173,51.077 178.878,51.410 178.240 C 52.103 176.911,52.011 176.450,51.285 177.613 M21.714 179.000 C 21.717 180.100,21.795 180.503,21.887 179.895 C 21.979 179.286,21.977 178.386,21.882 177.895 C 21.787 177.403,21.711 177.900,21.714 179.000 M108.671 272.960 C 108.523 273.345,108.851 273.585,109.728 273.731 C 110.428 273.848,111.540 274.042,112.200 274.164 C 113.190 274.346,113.225 274.331,112.400 274.074 C 111.517 273.799,111.486 273.730,112.133 273.482 C 113.708 272.876,115.308 273.143,115.091 273.974 C 114.899 274.707,115.838 275.495,116.324 275.009 C 116.439 274.894,116.323 274.800,116.067 274.800 C 115.810 274.800,115.600 274.607,115.600 274.372 C 115.600 274.137,116.005 274.002,116.500 274.072 C 117.075 274.154,117.400 274.476,117.400 274.966 C 117.400 275.387,117.670 275.805,118.000 275.896 C 118.525 276.040,118.526 276.009,118.011 275.652 C 116.912 274.888,118.688 274.656,120.186 275.367 C 121.760 276.113,122.300 276.767,121.667 277.158 C 121.389 277.330,121.510 277.601,122.001 277.908 C 122.640 278.307,122.732 278.288,122.542 277.794 C 122.252 277.037,123.080 277.023,123.829 277.771 C 124.607 278.550,124.547 278.942,123.700 278.619 C 123.313 278.472,123.179 278.500,123.400 278.682 C 123.620 278.864,124.339 279.459,124.997 280.006 C 125.894 280.751,126.019 280.791,125.497 280.169 C 124.676 279.189,124.617 278.800,125.289 278.800 C 125.901 278.800,130.800 283.617,130.800 284.219 C 130.800 284.462,131.254 285.087,131.809 285.608 C 133.668 287.355,135.590 292.383,134.030 291.419 C 133.857 291.312,133.816 291.714,133.938 292.312 C 134.093 293.070,134.206 293.187,134.309 292.700 C 134.471 291.944,135.014 291.775,135.380 292.368 C 135.505 292.570,135.378 292.975,135.098 293.268 C 134.770 293.611,134.679 294.298,134.842 295.200 C 135.072 296.474,135.099 296.498,135.147 295.467 C 135.180 294.754,135.385 294.395,135.700 294.500 C 135.975 294.592,136.182 294.877,136.160 295.133 C 136.138 295.390,136.093 295.971,136.060 296.424 C 136.023 296.932,135.825 297.139,135.542 296.964 C 135.225 296.768,135.157 296.977,135.321 297.640 C 135.685 299.107,135.747 305.439,135.402 305.997 C 135.235 306.268,135.287 306.607,135.519 306.750 C 136.144 307.136,136.287 309.286,135.700 309.491 C 135.379 309.604,135.200 309.273,135.200 308.567 C 135.200 307.189,134.990 307.405,134.663 309.120 C 134.525 309.847,134.570 310.342,134.764 310.222 C 135.190 309.959,135.695 311.123,135.378 311.636 C 135.002 312.244,134.402 312.043,134.372 311.300 C 134.348 310.707,134.296 310.723,134.032 311.400 C 133.820 311.941,133.917 312.344,134.331 312.646 C 134.877 313.046,134.871 313.242,134.278 314.491 C 133.460 316.216,132.350 317.238,132.101 316.498 C 132.008 316.221,131.756 316.103,131.542 316.236 C 131.323 316.371,131.469 316.723,131.876 317.039 C 132.567 317.575,132.560 317.635,131.700 318.364 C 131.205 318.785,130.800 319.328,130.800 319.572 C 130.800 320.194,125.727 325.200,125.096 325.200 C 124.810 325.200,124.317 325.560,124.000 326.000 C 123.313 326.954,122.203 327.091,122.553 326.179 C 122.689 325.823,122.622 325.663,122.395 325.803 C 122.178 325.937,122.000 326.319,122.000 326.652 C 122.000 327.375,121.379 328.005,119.927 328.753 C 118.807 329.330,117.369 329.097,117.795 328.407 C 117.940 328.173,117.772 328.113,117.387 328.260 C 116.868 328.460,116.842 328.579,117.263 328.839 C 117.659 329.084,117.678 329.282,117.339 329.621 C 116.793 330.167,115.364 329.932,115.486 329.317 C 115.539 329.053,115.225 328.977,114.686 329.125 C 113.932 329.332,113.907 329.390,114.522 329.517 C 115.401 329.700,115.202 330.548,114.235 330.735 C 112.963 330.982,111.358 330.404,112.021 329.938 C 112.441 329.642,112.326 329.616,111.600 329.841 C 110.388 330.218,105.062 330.228,103.400 329.857 C 102.524 329.661,102.416 329.686,103.000 329.949 C 103.744 330.283,103.723 330.329,102.701 330.597 C 101.565 330.896,100.091 330.575,100.539 330.127 C 100.842 329.824,100.061 328.800,99.527 328.800 C 99.321 328.800,99.265 328.981,99.402 329.203 C 99.829 329.894,98.480 330.102,97.211 329.541 C 96.545 329.246,96.000 328.699,96.000 328.326 C 96.000 327.953,95.822 327.537,95.605 327.403 C 95.378 327.263,95.311 327.423,95.447 327.779 C 95.602 328.182,95.459 328.400,95.043 328.400 C 94.673 328.400,94.400 328.070,94.400 327.624 C 94.400 327.197,94.222 326.737,94.005 326.603 C 93.778 326.463,93.711 326.623,93.847 326.979 C 94.002 327.382,93.859 327.600,93.443 327.600 C 93.089 327.600,92.800 327.420,92.800 327.200 C 92.800 326.980,92.522 326.800,92.182 326.800 C 91.010 326.800,89.159 324.565,90.135 324.329 C 90.472 324.248,90.212 323.835,89.435 323.218 C 88.518 322.488,88.380 322.444,88.900 323.049 C 90.752 325.203,88.786 324.807,86.556 322.577 C 84.467 320.488,84.254 318.628,86.310 320.440 L 87.400 321.400 86.442 320.312 C 85.915 319.714,85.335 319.317,85.153 319.429 C 84.596 319.773,82.854 318.390,82.203 317.086 C 81.257 315.189,82.132 314.956,83.342 316.784 C 83.930 317.673,84.511 318.400,84.633 318.400 C 84.755 318.400,84.459 317.845,83.975 317.166 C 83.492 316.487,82.671 315.092,82.150 314.066 C 81.629 313.040,81.203 312.515,81.202 312.900 C 81.201 313.285,81.020 313.600,80.800 313.600 C 80.580 313.600,80.400 313.259,80.400 312.843 C 80.400 312.426,80.152 311.991,79.849 311.874 C 79.258 311.647,79.424 309.600,80.034 309.600 C 80.222 309.600,80.276 309.341,80.154 309.025 C 80.033 308.709,79.679 308.548,79.367 308.668 C 78.936 308.834,78.800 308.501,78.800 307.276 C 78.800 306.391,78.990 305.603,79.223 305.526 C 79.510 305.430,79.526 304.851,79.270 303.715 C 79.043 302.705,79.037 301.285,79.254 300.124 C 79.489 298.864,79.473 298.158,79.206 298.069 C 78.680 297.893,78.674 295.200,79.200 295.200 C 79.420 295.200,79.623 295.785,79.650 296.500 C 79.699 297.760,79.710 297.751,80.011 296.200 C 80.182 295.320,80.435 294.150,80.573 293.600 L 80.823 292.600 80.357 293.600 L 79.892 294.600 79.604 293.600 C 79.412 292.935,79.502 292.448,79.873 292.145 C 80.179 291.895,80.378 291.467,80.315 291.195 C 80.252 290.923,80.425 290.618,80.700 290.517 C 80.980 290.414,81.212 290.656,81.228 291.067 C 81.253 291.728,81.287 291.722,81.568 291.000 C 81.779 290.462,81.684 290.057,81.280 289.761 C 80.786 289.400,80.774 289.263,81.216 288.990 C 81.549 288.784,81.818 288.854,81.925 289.174 C 82.065 289.594,82.157 289.593,82.420 289.168 C 82.620 288.845,82.487 288.458,82.071 288.152 C 81.443 287.689,81.443 287.640,82.075 287.395 C 82.446 287.252,82.666 286.917,82.564 286.652 C 82.463 286.386,82.924 285.648,83.590 285.010 C 84.255 284.372,84.800 283.665,84.800 283.438 C 84.800 282.775,88.912 278.800,89.598 278.800 C 89.942 278.800,90.483 278.440,90.800 278.000 C 91.117 277.560,91.631 277.200,91.941 277.200 C 92.252 277.200,92.833 276.824,93.232 276.364 C 93.799 275.710,94.224 275.586,95.178 275.795 C 96.105 275.999,96.350 275.935,96.195 275.531 C 95.938 274.860,98.168 273.825,99.100 274.183 C 99.685 274.408,99.697 274.499,99.189 274.852 C 98.673 275.210,98.675 275.241,99.198 275.098 C 99.527 275.008,99.797 274.589,99.798 274.167 C 99.800 273.283,102.189 272.829,102.931 273.571 C 103.236 273.876,103.087 274.000,102.413 274.000 C 101.893 274.000,101.570 274.103,101.696 274.229 C 102.158 274.691,106.320 273.457,106.114 272.919 C 105.972 272.551,106.347 272.400,107.400 272.400 C 108.508 272.400,108.831 272.542,108.671 272.960 M308.671 272.960 C 308.523 273.345,308.851 273.585,309.728 273.731 C 310.428 273.848,311.540 274.042,312.200 274.164 C 313.190 274.346,313.225 274.331,312.400 274.074 C 311.517 273.799,311.486 273.730,312.133 273.482 C 313.708 272.876,315.308 273.143,315.091 273.974 C 314.899 274.707,315.838 275.495,316.324 275.009 C 316.439 274.894,316.323 274.800,316.067 274.800 C 315.810 274.800,315.600 274.607,315.600 274.372 C 315.600 274.137,316.005 274.002,316.500 274.072 C 317.075 274.154,317.400 274.476,317.400 274.966 C 317.400 275.387,317.670 275.805,318.000 275.896 C 318.525 276.040,318.526 276.009,318.011 275.652 C 316.912 274.888,318.688 274.656,320.186 275.367 C 321.760 276.113,322.300 276.767,321.667 277.158 C 321.389 277.330,321.510 277.601,322.001 277.908 C 322.640 278.307,322.732 278.288,322.542 277.794 C 322.252 277.037,323.080 277.023,323.829 277.771 C 324.607 278.550,324.547 278.942,323.700 278.619 C 323.313 278.472,323.179 278.500,323.400 278.682 C 323.620 278.864,324.339 279.459,324.997 280.006 C 325.894 280.751,326.019 280.791,325.497 280.169 C 324.676 279.189,324.617 278.800,325.289 278.800 C 325.901 278.800,330.800 283.617,330.800 284.219 C 330.800 284.462,331.254 285.087,331.809 285.608 C 333.668 287.355,335.590 292.383,334.030 291.419 C 333.857 291.312,333.816 291.714,333.938 292.312 C 334.093 293.070,334.206 293.187,334.309 292.700 C 334.471 291.944,335.014 291.775,335.380 292.368 C 335.505 292.570,335.378 292.975,335.098 293.268 C 334.770 293.611,334.679 294.298,334.842 295.200 C 335.072 296.474,335.099 296.498,335.147 295.467 C 335.180 294.754,335.385 294.395,335.700 294.500 C 335.975 294.592,336.182 294.877,336.160 295.133 C 336.138 295.390,336.093 295.971,336.060 296.424 C 336.023 296.932,335.825 297.139,335.542 296.964 C 335.225 296.768,335.157 296.977,335.321 297.640 C 335.685 299.107,335.747 305.439,335.402 305.997 C 335.235 306.268,335.287 306.607,335.519 306.750 C 336.144 307.136,336.287 309.286,335.700 309.491 C 335.379 309.604,335.200 309.273,335.200 308.567 C 335.200 307.189,334.990 307.405,334.663 309.120 C 334.525 309.847,334.570 310.342,334.764 310.222 C 335.190 309.959,335.695 311.123,335.378 311.636 C 335.002 312.244,334.402 312.043,334.372 311.300 C 334.348 310.707,334.296 310.723,334.032 311.400 C 333.820 311.941,333.917 312.344,334.331 312.646 C 334.877 313.046,334.871 313.242,334.278 314.491 C 333.460 316.216,332.350 317.238,332.101 316.498 C 332.008 316.221,331.756 316.103,331.542 316.236 C 331.323 316.371,331.469 316.723,331.876 317.039 C 332.567 317.575,332.560 317.635,331.700 318.364 C 331.205 318.785,330.800 319.328,330.800 319.572 C 330.800 320.194,325.727 325.200,325.096 325.200 C 324.810 325.200,324.317 325.560,324.000 326.000 C 323.313 326.954,322.203 327.091,322.553 326.179 C 322.689 325.823,322.622 325.663,322.395 325.803 C 322.178 325.937,322.000 326.319,322.000 326.652 C 322.000 327.375,321.379 328.005,319.927 328.753 C 318.807 329.330,317.369 329.097,317.795 328.407 C 317.940 328.173,317.772 328.113,317.387 328.260 C 316.868 328.460,316.842 328.579,317.263 328.839 C 317.659 329.084,317.678 329.282,317.339 329.621 C 316.793 330.167,315.364 329.932,315.486 329.317 C 315.539 329.053,315.225 328.977,314.686 329.125 C 313.932 329.332,313.907 329.390,314.522 329.517 C 315.401 329.700,315.202 330.548,314.235 330.735 C 312.963 330.982,311.358 330.404,312.021 329.938 C 312.441 329.642,312.326 329.616,311.600 329.841 C 310.388 330.218,305.062 330.228,303.400 329.857 C 302.524 329.661,302.416 329.686,303.000 329.949 C 303.744 330.283,303.723 330.329,302.701 330.597 C 301.565 330.896,300.091 330.575,300.539 330.127 C 300.842 329.824,300.061 328.800,299.527 328.800 C 299.321 328.800,299.265 328.981,299.402 329.203 C 299.829 329.894,298.480 330.102,297.211 329.541 C 296.545 329.246,296.000 328.699,296.000 328.326 C 296.000 327.953,295.822 327.537,295.605 327.403 C 295.378 327.263,295.311 327.423,295.447 327.779 C 295.602 328.182,295.459 328.400,295.043 328.400 C 294.673 328.400,294.400 328.070,294.400 327.624 C 294.400 327.197,294.222 326.737,294.005 326.603 C 293.778 326.463,293.711 326.623,293.847 326.979 C 294.002 327.382,293.859 327.600,293.443 327.600 C 293.089 327.600,292.800 327.420,292.800 327.200 C 292.800 326.980,292.522 326.800,292.182 326.800 C 291.010 326.800,289.159 324.565,290.135 324.329 C 290.472 324.248,290.212 323.835,289.435 323.218 C 288.518 322.488,288.380 322.444,288.900 323.049 C 290.752 325.203,288.786 324.807,286.556 322.577 C 284.467 320.488,284.254 318.628,286.310 320.440 L 287.400 321.400 286.442 320.312 C 285.915 319.714,285.335 319.317,285.153 319.429 C 284.596 319.773,282.854 318.390,282.203 317.086 C 281.257 315.189,282.132 314.956,283.342 316.784 C 283.930 317.673,284.511 318.400,284.633 318.400 C 284.755 318.400,284.459 317.845,283.975 317.166 C 283.492 316.487,282.671 315.092,282.150 314.066 C 281.629 313.040,281.203 312.515,281.202 312.900 C 281.201 313.285,281.020 313.600,280.800 313.600 C 280.580 313.600,280.400 313.259,280.400 312.843 C 280.400 312.426,280.152 311.991,279.849 311.874 C 279.258 311.647,279.424 309.600,280.034 309.600 C 280.222 309.600,280.276 309.341,280.154 309.025 C 280.033 308.709,279.679 308.548,279.367 308.668 C 278.936 308.834,278.800 308.501,278.800 307.276 C 278.800 306.391,278.990 305.603,279.223 305.526 C 279.510 305.430,279.526 304.851,279.270 303.715 C 279.043 302.705,279.037 301.285,279.254 300.124 C 279.489 298.864,279.473 298.158,279.206 298.069 C 278.680 297.893,278.674 295.200,279.200 295.200 C 279.420 295.200,279.623 295.785,279.650 296.500 C 279.699 297.760,279.710 297.751,280.011 296.200 C 280.182 295.320,280.435 294.150,280.573 293.600 L 280.823 292.600 280.357 293.600 L 279.892 294.600 279.604 293.600 C 279.412 292.935,279.502 292.448,279.873 292.145 C 280.179 291.895,280.378 291.467,280.315 291.195 C 280.252 290.923,280.425 290.618,280.700 290.517 C 280.980 290.414,281.212 290.656,281.228 291.067 C 281.253 291.728,281.287 291.722,281.568 291.000 C 281.779 290.462,281.684 290.057,281.280 289.761 C 280.786 289.400,280.774 289.263,281.216 288.990 C 281.549 288.784,281.818 288.854,281.925 289.174 C 282.065 289.594,282.157 289.593,282.420 289.168 C 282.620 288.845,282.487 288.458,282.071 288.152 C 281.443 287.689,281.443 287.640,282.075 287.395 C 282.446 287.252,282.666 286.917,282.564 286.652 C 282.463 286.386,282.924 285.648,283.590 285.010 C 284.255 284.372,284.800 283.665,284.800 283.438 C 284.800 282.775,288.912 278.800,289.598 278.800 C 289.942 278.800,290.483 278.440,290.800 278.000 C 291.117 277.560,291.631 277.200,291.941 277.200 C 292.252 277.200,292.833 276.824,293.232 276.364 C 293.799 275.710,294.224 275.586,295.178 275.795 C 296.105 275.999,296.350 275.935,296.195 275.531 C 295.938 274.860,298.168 273.825,299.100 274.183 C 299.685 274.408,299.697 274.499,299.189 274.852 C 298.673 275.210,298.675 275.241,299.198 275.098 C 299.527 275.008,299.797 274.589,299.798 274.167 C 299.800 273.283,302.189 272.829,302.931 273.571 C 303.236 273.876,303.087 274.000,302.413 274.000 C 301.893 274.000,301.570 274.103,301.696 274.229 C 302.158 274.691,306.320 273.457,306.114 272.919 C 305.972 272.551,306.347 272.400,307.400 272.400 C 308.508 272.400,308.831 272.542,308.671 272.960 M136.967 299.700 C 137.307 301.377,137.013 304.529,136.500 304.700 C 136.129 304.824,136.000 304.082,136.000 301.833 C 136.000 298.956,136.564 297.712,136.967 299.700 M336.967 299.700 C 337.307 301.377,337.013 304.529,336.500 304.700 C 336.129 304.824,336.000 304.082,336.000 301.833 C 336.000 298.956,336.564 297.712,336.967 299.700 M38.800 302.271 C 44.123 302.560,49.911 302.575,49.739 302.300 C 49.637 302.135,46.638 302.034,43.076 302.076 C 39.514 302.117,37.590 302.205,38.800 302.271 M164.961 302.558 C 164.843 302.865,164.818 303.810,164.906 304.658 C 165.057 306.120,165.069 306.101,165.133 304.296 L 165.200 302.393 207.562 302.496 C 230.861 302.553,249.840 302.465,249.738 302.300 C 249.359 301.686,165.197 301.943,164.961 302.558 M364.914 304.200 C 364.917 305.300,364.995 305.703,365.087 305.095 C 365.179 304.486,365.177 303.586,365.082 303.095 C 364.987 302.603,364.911 303.100,364.914 304.200 M82.000 314.624 C 82.000 314.941,81.820 315.200,81.600 315.200 C 81.380 315.200,81.200 314.829,81.200 314.376 C 81.200 313.923,81.380 313.664,81.600 313.800 C 81.820 313.936,82.000 314.307,82.000 314.624 M282.000 314.624 C 282.000 314.941,281.820 315.200,281.600 315.200 C 281.380 315.200,281.200 314.829,281.200 314.376 C 281.200 313.923,281.380 313.664,281.600 313.800 C 281.820 313.936,282.000 314.307,282.000 314.624 M127.178 321.900 L 125.800 323.400 127.300 322.022 C 128.696 320.738,128.984 320.400,128.678 320.400 C 128.612 320.400,127.937 321.075,127.178 321.900 M327.178 321.900 L 325.800 323.400 327.300 322.022 C 328.696 320.738,328.984 320.400,328.678 320.400 C 328.612 320.400,327.937 321.075,327.178 321.900 M55.600 324.600 C 55.600 324.930,55.420 325.200,55.200 325.200 C 54.980 325.200,54.800 324.930,54.800 324.600 C 54.800 324.270,54.980 324.000,55.200 324.000 C 55.420 324.000,55.600 324.270,55.600 324.600 M255.600 324.600 C 255.600 324.930,255.420 325.200,255.200 325.200 C 254.980 325.200,254.800 324.930,254.800 324.600 C 254.800 324.270,254.980 324.000,255.200 324.000 C 255.420 324.000,255.600 324.270,255.600 324.600 M104.917 359.497 C 106.411 359.574,108.751 359.574,110.117 359.496 C 111.482 359.418,110.260 359.355,107.400 359.355 C 104.540 359.356,103.422 359.420,104.917 359.497 M304.917 359.497 C 306.411 359.574,308.751 359.574,310.117 359.496 C 311.482 359.418,310.260 359.355,307.400 359.355 C 304.540 359.356,303.422 359.420,304.917 359.497 " stroke="none" fill="#e0b034" fill-rule="evenodd"></path></g></svg>